<svg width="145" height="32" viewBox="0 0 145 32" fill="none" xmlns="http://www.w3.org/2000/svg">
<path d="M29.0621 31.9997H16.0371L2.93712 10.3372L15.9621 10.3372L29.0621 31.9997Z" fill="white"/>
<path d="M16.0371 31.9997H3.01211L16.0371 10.3372L29.0621 10.3372L16.0371 31.9997Z" fill="#465FFF"/>
<path d="M16.0371 21.6622H29.0621L16.0371 0.000109038L3.01211 0.000109038L16.0371 21.6622Z" fill="#465FFF"/>
<path d="M16.0371 21.6622H3.01211L16.0371 0.000109038L29.0621 0.000109038L16.0371 21.6622Z" fill="white"/>
<path d="M49.3371 23.9997H45.8371V8.32471H39.5121V5.32471H55.6621V8.32471H49.3371V23.9997Z" fill="white"/>
<path d="M68.5121 23.9997H65.0121L63.3621 19.8747H57.2871L55.6371 23.9997H52.1371L58.5621 8.32471H62.0871L68.5121 23.9997ZM62.2371 16.9497L60.3121 12.1497L58.4121 16.9497H62.2371Z" fill="white"/>
<path d="M72.0121 23.9997H68.5121V5.32471H72.0121V23.9997Z" fill="white"/>
<path d="M75.5121 23.9997H72.0121V5.32471H75.5121V20.9997H83.8371V23.9997H75.5121Z" fill="white"/>
<path d="M96.0871 23.9997H92.5871L90.9371 19.8747H84.8621L83.2121 23.9997H79.7121L86.1371 8.32471H89.6621L96.0871 23.9997ZM89.8121 16.9497L87.8871 12.1497L85.9871 16.9497H89.8121Z" fill="white"/>
<path d="M100.212 23.9997H96.7121V5.32471H102.762C104.937 5.32471 106.637 5.92471 107.862 7.12471C109.087 8.32471 109.712 9.94971 109.737 11.9997V17.3247C109.712 19.3747 109.087 20.9997 107.862 22.1997C106.637 23.3997 104.937 23.9997 102.762 23.9997H100.212ZM100.212 20.9997H102.762C103.962 20.9997 104.862 20.6497 105.462 19.9497C106.062 19.2497 106.362 18.2247 106.362 16.8747V12.4497C106.362 11.0997 106.062 10.0747 105.462 9.37471C104.862 8.67471 103.962 8.32471 102.762 8.32471H100.212V20.9997Z" fill="white"/>
<path d="M125.137 23.9997H121.637V11.3247L117.262 23.9997H114.637L110.262 11.3247V23.9997H106.762V5.32471H110.262L115.962 21.8247L121.637 5.32471H125.137V23.9997Z" fill="white"/>
<path d="M128.637 23.9997H125.137V5.32471H128.637V23.9997Z" fill="white"/>
<path d="M144.562 23.9997H141.062L134.412 13.9497V23.9997H130.912V5.32471H134.412L141.062 15.3747V5.32471H144.562V23.9997Z" fill="white"/>
</svg>
